<svg xmlns="http://www.w3.org/2000/svg" width="60" height="60" id="messenger"><path d="M30 8C17.887 8 8 17.387 8 29c0 5.153 2.025 10.092 5.594 13.926l-1.574 7.879a1 1 0 0 0 1.365 1.119l8.383-3.492C24.387 49.442 27.173 50 30 50c12.113 0 22-9.387 22-21S42.113 8 30 8zm0 2c11.083 0 20 8.522 20 19s-8.917 19-20 19c-2.723 0-5.417-.53-7.916-1.553a1 1 0 0 0-.764.002l-6.972 2.905 1.298-6.493a1 1 0 0 0-.267-.896C11.916 38.44 9.999 33.809 9.999 29c0-10.478 8.918-19 20-19z" color="#000" style="font-feature-settings:normal;font-variant-alternates:normal;font-variant-caps:normal;font-variant-east-asian:normal;font-variant-ligatures:normal;font-variant-numeric:normal;font-variant-position:normal;font-variation-settings:normal;inline-size:0;isolation:auto;mix-blend-mode:normal;shape-margin:0;shape-padding:0;text-decoration-color:#000;text-decoration-line:none;text-decoration-style:solid;text-indent:0;text-orientation:mixed;text-transform:none"></path><path d="M28.029 22a1 1 0 0 0-.736.293l-10 10a1 1 0 0 0 1.023 1.656l8.414-2.805 4.563 4.563a1 1 0 0 0 1.414 0l10-10a1 1 0 0 0-1.024-1.656l-8.414 2.804-4.562-4.562a1 1 0 0 0-.678-.293zm-.03 2.414 4.294 4.293a1 1 0 0 0 1.023.242l4.98-1.66L32 33.586l-4.293-4.293a1 1 0 0 0-1.024-.242l-4.98 1.66z" color="#000" style="font-feature-settings:normal;font-variant-alternates:normal;font-variant-caps:normal;font-variant-east-asian:normal;font-variant-ligatures:normal;font-variant-numeric:normal;font-variant-position:normal;font-variation-settings:normal;inline-size:0;isolation:auto;mix-blend-mode:normal;shape-margin:0;shape-padding:0;text-decoration-color:#000;text-decoration-line:none;text-decoration-style:solid;text-indent:0;text-orientation:mixed;text-transform:none"></path></svg>